%TF.GenerationSoftware,KiCad,Pcbnew,7.0.7*%
%TF.CreationDate,2024-05-03T13:44:01+01:00*%
%TF.ProjectId,MRF67-pro,4d524636-372d-4707-926f-2e6b69636164,rev?*%
%TF.SameCoordinates,Original*%
%TF.FileFunction,Soldermask,Bot*%
%TF.FilePolarity,Negative*%
%FSLAX46Y46*%
G04 Gerber Fmt 4.6, Leading zero omitted, Abs format (unit mm)*
G04 Created by KiCad (PCBNEW 7.0.7) date 2024-05-03 13:44:01*
%MOMM*%
%LPD*%
G01*
G04 APERTURE LIST*
G04 Aperture macros list*
%AMRoundRect*
0 Rectangle with rounded corners*
0 $1 Rounding radius*
0 $2 $3 $4 $5 $6 $7 $8 $9 X,Y pos of 4 corners*
0 Add a 4 corners polygon primitive as box body*
4,1,4,$2,$3,$4,$5,$6,$7,$8,$9,$2,$3,0*
0 Add four circle primitives for the rounded corners*
1,1,$1+$1,$2,$3*
1,1,$1+$1,$4,$5*
1,1,$1+$1,$6,$7*
1,1,$1+$1,$8,$9*
0 Add four rect primitives between the rounded corners*
20,1,$1+$1,$2,$3,$4,$5,0*
20,1,$1+$1,$4,$5,$6,$7,0*
20,1,$1+$1,$6,$7,$8,$9,0*
20,1,$1+$1,$8,$9,$2,$3,0*%
G04 Aperture macros list end*
%ADD10R,1.700000X1.700000*%
%ADD11O,1.700000X1.700000*%
%ADD12C,2.200000*%
%ADD13RoundRect,0.250000X0.600000X0.725000X-0.600000X0.725000X-0.600000X-0.725000X0.600000X-0.725000X0*%
%ADD14O,1.700000X1.950000*%
%ADD15C,1.200000*%
%ADD16RoundRect,0.250000X-0.725000X0.600000X-0.725000X-0.600000X0.725000X-0.600000X0.725000X0.600000X0*%
%ADD17O,1.950000X1.700000*%
G04 APERTURE END LIST*
D10*
%TO.C,J2*%
X146050000Y-101600000D03*
D11*
X143510000Y-101600000D03*
X140970000Y-101600000D03*
X138430000Y-101600000D03*
X135890000Y-101600000D03*
X133350000Y-101600000D03*
X130810000Y-101600000D03*
X128270000Y-101600000D03*
X125730000Y-101600000D03*
X123190000Y-101600000D03*
X120650000Y-101600000D03*
X118110000Y-101600000D03*
%TD*%
D10*
%TO.C,J1*%
X107950000Y-121920000D03*
D11*
X110490000Y-121920000D03*
X113030000Y-121920000D03*
X115570000Y-121920000D03*
X118110000Y-121920000D03*
X120650000Y-121920000D03*
X123190000Y-121920000D03*
X125730000Y-121920000D03*
X128270000Y-121920000D03*
X130810000Y-121920000D03*
X133350000Y-121920000D03*
X135890000Y-121920000D03*
X138430000Y-121920000D03*
X140970000Y-121920000D03*
X143510000Y-121920000D03*
X146050000Y-121920000D03*
%TD*%
D12*
%TO.C,REF\u002A\u002A*%
X108839000Y-126365000D03*
%TD*%
%TO.C,REF\u002A\u002A*%
X180340000Y-125857000D03*
%TD*%
%TO.C,REF\u002A\u002A*%
X180340000Y-102743000D03*
%TD*%
D10*
%TO.C,J4*%
X168910000Y-109220000D03*
D11*
X168910000Y-111760000D03*
X168910000Y-114300000D03*
X168910000Y-116840000D03*
%TD*%
D13*
%TO.C,J3*%
X168743000Y-122936000D03*
D14*
X166243000Y-122936000D03*
X163743000Y-122936000D03*
X161243000Y-122936000D03*
%TD*%
D15*
%TO.C,J6*%
X160560000Y-101390000D03*
D16*
X162560000Y-102990000D03*
D17*
X162560000Y-105490000D03*
X162560000Y-107990000D03*
X162560000Y-110490000D03*
X162560000Y-112990000D03*
X162560000Y-115490000D03*
%TD*%
M02*
