%TF.GenerationSoftware,KiCad,Pcbnew,7.0.7*%
%TF.CreationDate,2024-05-03T13:44:01+01:00*%
%TF.ProjectId,MRF67-pro,4d524636-372d-4707-926f-2e6b69636164,rev?*%
%TF.SameCoordinates,Original*%
%TF.FileFunction,Legend,Top*%
%TF.FilePolarity,Positive*%
%FSLAX46Y46*%
G04 Gerber Fmt 4.6, Leading zero omitted, Abs format (unit mm)*
G04 Created by KiCad (PCBNEW 7.0.7) date 2024-05-03 13:44:01*
%MOMM*%
%LPD*%
G01*
G04 APERTURE LIST*
%ADD10C,0.150000*%
%ADD11C,0.200000*%
%ADD12C,0.120000*%
G04 APERTURE END LIST*
D10*
X182499000Y-106553000D02*
X182499000Y-118618000D01*
X167513000Y-106553000D02*
X182499000Y-106553000D01*
X182499000Y-118618000D02*
X167513000Y-118618000D01*
D11*
X171667292Y-108141457D02*
X171967292Y-109041457D01*
X171967292Y-109041457D02*
X172267292Y-108141457D01*
X172567292Y-109041457D02*
X172567292Y-108141457D01*
X172995863Y-109041457D02*
X172995863Y-108141457D01*
X172995863Y-108141457D02*
X173510149Y-109041457D01*
X173510149Y-109041457D02*
X173510149Y-108141457D01*
X172267292Y-111082314D02*
X172181578Y-111039457D01*
X172181578Y-111039457D02*
X172053006Y-111039457D01*
X172053006Y-111039457D02*
X171924435Y-111082314D01*
X171924435Y-111082314D02*
X171838720Y-111168028D01*
X171838720Y-111168028D02*
X171795863Y-111253742D01*
X171795863Y-111253742D02*
X171753006Y-111425171D01*
X171753006Y-111425171D02*
X171753006Y-111553742D01*
X171753006Y-111553742D02*
X171795863Y-111725171D01*
X171795863Y-111725171D02*
X171838720Y-111810885D01*
X171838720Y-111810885D02*
X171924435Y-111896600D01*
X171924435Y-111896600D02*
X172053006Y-111939457D01*
X172053006Y-111939457D02*
X172138720Y-111939457D01*
X172138720Y-111939457D02*
X172267292Y-111896600D01*
X172267292Y-111896600D02*
X172310149Y-111853742D01*
X172310149Y-111853742D02*
X172310149Y-111553742D01*
X172310149Y-111553742D02*
X172138720Y-111553742D01*
X172695863Y-111939457D02*
X172695863Y-111039457D01*
X172695863Y-111039457D02*
X173210149Y-111939457D01*
X173210149Y-111939457D02*
X173210149Y-111039457D01*
X173638720Y-111939457D02*
X173638720Y-111039457D01*
X173638720Y-111039457D02*
X173853006Y-111039457D01*
X173853006Y-111039457D02*
X173981577Y-111082314D01*
X173981577Y-111082314D02*
X174067292Y-111168028D01*
X174067292Y-111168028D02*
X174110149Y-111253742D01*
X174110149Y-111253742D02*
X174153006Y-111425171D01*
X174153006Y-111425171D02*
X174153006Y-111553742D01*
X174153006Y-111553742D02*
X174110149Y-111725171D01*
X174110149Y-111725171D02*
X174067292Y-111810885D01*
X174067292Y-111810885D02*
X173981577Y-111896600D01*
X173981577Y-111896600D02*
X173853006Y-111939457D01*
X173853006Y-111939457D02*
X173638720Y-111939457D01*
X172224435Y-113937457D02*
X171795863Y-113937457D01*
X171795863Y-113937457D02*
X171753006Y-114366028D01*
X171753006Y-114366028D02*
X171795863Y-114323171D01*
X171795863Y-114323171D02*
X171881578Y-114280314D01*
X171881578Y-114280314D02*
X172095863Y-114280314D01*
X172095863Y-114280314D02*
X172181578Y-114323171D01*
X172181578Y-114323171D02*
X172224435Y-114366028D01*
X172224435Y-114366028D02*
X172267292Y-114451742D01*
X172267292Y-114451742D02*
X172267292Y-114666028D01*
X172267292Y-114666028D02*
X172224435Y-114751742D01*
X172224435Y-114751742D02*
X172181578Y-114794600D01*
X172181578Y-114794600D02*
X172095863Y-114837457D01*
X172095863Y-114837457D02*
X171881578Y-114837457D01*
X171881578Y-114837457D02*
X171795863Y-114794600D01*
X171795863Y-114794600D02*
X171753006Y-114751742D01*
X172524435Y-113937457D02*
X172824435Y-114837457D01*
X172824435Y-114837457D02*
X173124435Y-113937457D01*
X173595864Y-113937457D02*
X173767292Y-113937457D01*
X173767292Y-113937457D02*
X173853007Y-113980314D01*
X173853007Y-113980314D02*
X173938721Y-114066028D01*
X173938721Y-114066028D02*
X173981578Y-114237457D01*
X173981578Y-114237457D02*
X173981578Y-114537457D01*
X173981578Y-114537457D02*
X173938721Y-114708885D01*
X173938721Y-114708885D02*
X173853007Y-114794600D01*
X173853007Y-114794600D02*
X173767292Y-114837457D01*
X173767292Y-114837457D02*
X173595864Y-114837457D01*
X173595864Y-114837457D02*
X173510150Y-114794600D01*
X173510150Y-114794600D02*
X173424435Y-114708885D01*
X173424435Y-114708885D02*
X173381578Y-114537457D01*
X173381578Y-114537457D02*
X173381578Y-114237457D01*
X173381578Y-114237457D02*
X173424435Y-114066028D01*
X173424435Y-114066028D02*
X173510150Y-113980314D01*
X173510150Y-113980314D02*
X173595864Y-113937457D01*
X174367292Y-113937457D02*
X174367292Y-114666028D01*
X174367292Y-114666028D02*
X174410149Y-114751742D01*
X174410149Y-114751742D02*
X174453007Y-114794600D01*
X174453007Y-114794600D02*
X174538721Y-114837457D01*
X174538721Y-114837457D02*
X174710149Y-114837457D01*
X174710149Y-114837457D02*
X174795864Y-114794600D01*
X174795864Y-114794600D02*
X174838721Y-114751742D01*
X174838721Y-114751742D02*
X174881578Y-114666028D01*
X174881578Y-114666028D02*
X174881578Y-113937457D01*
X175181578Y-113937457D02*
X175695864Y-113937457D01*
X175438721Y-114837457D02*
X175438721Y-113937457D01*
X171795863Y-117392600D02*
X172481578Y-117392600D01*
X155757292Y-101372314D02*
X155671578Y-101329457D01*
X155671578Y-101329457D02*
X155543006Y-101329457D01*
X155543006Y-101329457D02*
X155414435Y-101372314D01*
X155414435Y-101372314D02*
X155328720Y-101458028D01*
X155328720Y-101458028D02*
X155285863Y-101543742D01*
X155285863Y-101543742D02*
X155243006Y-101715171D01*
X155243006Y-101715171D02*
X155243006Y-101843742D01*
X155243006Y-101843742D02*
X155285863Y-102015171D01*
X155285863Y-102015171D02*
X155328720Y-102100885D01*
X155328720Y-102100885D02*
X155414435Y-102186600D01*
X155414435Y-102186600D02*
X155543006Y-102229457D01*
X155543006Y-102229457D02*
X155628720Y-102229457D01*
X155628720Y-102229457D02*
X155757292Y-102186600D01*
X155757292Y-102186600D02*
X155800149Y-102143742D01*
X155800149Y-102143742D02*
X155800149Y-101843742D01*
X155800149Y-101843742D02*
X155628720Y-101843742D01*
X156185863Y-102229457D02*
X156185863Y-101329457D01*
X156185863Y-101329457D02*
X156700149Y-102229457D01*
X156700149Y-102229457D02*
X156700149Y-101329457D01*
X157128720Y-102229457D02*
X157128720Y-101329457D01*
X157128720Y-101329457D02*
X157343006Y-101329457D01*
X157343006Y-101329457D02*
X157471577Y-101372314D01*
X157471577Y-101372314D02*
X157557292Y-101458028D01*
X157557292Y-101458028D02*
X157600149Y-101543742D01*
X157600149Y-101543742D02*
X157643006Y-101715171D01*
X157643006Y-101715171D02*
X157643006Y-101843742D01*
X157643006Y-101843742D02*
X157600149Y-102015171D01*
X157600149Y-102015171D02*
X157557292Y-102100885D01*
X157557292Y-102100885D02*
X157471577Y-102186600D01*
X157471577Y-102186600D02*
X157343006Y-102229457D01*
X157343006Y-102229457D02*
X157128720Y-102229457D01*
X155757292Y-104270314D02*
X155671578Y-104227457D01*
X155671578Y-104227457D02*
X155543006Y-104227457D01*
X155543006Y-104227457D02*
X155414435Y-104270314D01*
X155414435Y-104270314D02*
X155328720Y-104356028D01*
X155328720Y-104356028D02*
X155285863Y-104441742D01*
X155285863Y-104441742D02*
X155243006Y-104613171D01*
X155243006Y-104613171D02*
X155243006Y-104741742D01*
X155243006Y-104741742D02*
X155285863Y-104913171D01*
X155285863Y-104913171D02*
X155328720Y-104998885D01*
X155328720Y-104998885D02*
X155414435Y-105084600D01*
X155414435Y-105084600D02*
X155543006Y-105127457D01*
X155543006Y-105127457D02*
X155628720Y-105127457D01*
X155628720Y-105127457D02*
X155757292Y-105084600D01*
X155757292Y-105084600D02*
X155800149Y-105041742D01*
X155800149Y-105041742D02*
X155800149Y-104741742D01*
X155800149Y-104741742D02*
X155628720Y-104741742D01*
X156185863Y-105127457D02*
X156185863Y-104227457D01*
X156185863Y-104227457D02*
X156700149Y-105127457D01*
X156700149Y-105127457D02*
X156700149Y-104227457D01*
X157128720Y-105127457D02*
X157128720Y-104227457D01*
X157128720Y-104227457D02*
X157343006Y-104227457D01*
X157343006Y-104227457D02*
X157471577Y-104270314D01*
X157471577Y-104270314D02*
X157557292Y-104356028D01*
X157557292Y-104356028D02*
X157600149Y-104441742D01*
X157600149Y-104441742D02*
X157643006Y-104613171D01*
X157643006Y-104613171D02*
X157643006Y-104741742D01*
X157643006Y-104741742D02*
X157600149Y-104913171D01*
X157600149Y-104913171D02*
X157557292Y-104998885D01*
X157557292Y-104998885D02*
X157471577Y-105084600D01*
X157471577Y-105084600D02*
X157343006Y-105127457D01*
X157343006Y-105127457D02*
X157128720Y-105127457D01*
X155757292Y-107168314D02*
X155671578Y-107125457D01*
X155671578Y-107125457D02*
X155543006Y-107125457D01*
X155543006Y-107125457D02*
X155414435Y-107168314D01*
X155414435Y-107168314D02*
X155328720Y-107254028D01*
X155328720Y-107254028D02*
X155285863Y-107339742D01*
X155285863Y-107339742D02*
X155243006Y-107511171D01*
X155243006Y-107511171D02*
X155243006Y-107639742D01*
X155243006Y-107639742D02*
X155285863Y-107811171D01*
X155285863Y-107811171D02*
X155328720Y-107896885D01*
X155328720Y-107896885D02*
X155414435Y-107982600D01*
X155414435Y-107982600D02*
X155543006Y-108025457D01*
X155543006Y-108025457D02*
X155628720Y-108025457D01*
X155628720Y-108025457D02*
X155757292Y-107982600D01*
X155757292Y-107982600D02*
X155800149Y-107939742D01*
X155800149Y-107939742D02*
X155800149Y-107639742D01*
X155800149Y-107639742D02*
X155628720Y-107639742D01*
X156185863Y-108025457D02*
X156185863Y-107125457D01*
X156185863Y-107125457D02*
X156700149Y-108025457D01*
X156700149Y-108025457D02*
X156700149Y-107125457D01*
X157128720Y-108025457D02*
X157128720Y-107125457D01*
X157128720Y-107125457D02*
X157343006Y-107125457D01*
X157343006Y-107125457D02*
X157471577Y-107168314D01*
X157471577Y-107168314D02*
X157557292Y-107254028D01*
X157557292Y-107254028D02*
X157600149Y-107339742D01*
X157600149Y-107339742D02*
X157643006Y-107511171D01*
X157643006Y-107511171D02*
X157643006Y-107639742D01*
X157643006Y-107639742D02*
X157600149Y-107811171D01*
X157600149Y-107811171D02*
X157557292Y-107896885D01*
X157557292Y-107896885D02*
X157471577Y-107982600D01*
X157471577Y-107982600D02*
X157343006Y-108025457D01*
X157343006Y-108025457D02*
X157128720Y-108025457D01*
X155285863Y-110923457D02*
X155285863Y-110023457D01*
X155285863Y-110023457D02*
X155628720Y-110023457D01*
X155628720Y-110023457D02*
X155714435Y-110066314D01*
X155714435Y-110066314D02*
X155757292Y-110109171D01*
X155757292Y-110109171D02*
X155800149Y-110194885D01*
X155800149Y-110194885D02*
X155800149Y-110323457D01*
X155800149Y-110323457D02*
X155757292Y-110409171D01*
X155757292Y-110409171D02*
X155714435Y-110452028D01*
X155714435Y-110452028D02*
X155628720Y-110494885D01*
X155628720Y-110494885D02*
X155285863Y-110494885D01*
X156100149Y-110023457D02*
X156314435Y-110923457D01*
X156314435Y-110923457D02*
X156485863Y-110280600D01*
X156485863Y-110280600D02*
X156657292Y-110923457D01*
X156657292Y-110923457D02*
X156871578Y-110023457D01*
X157728720Y-110923457D02*
X157428720Y-110494885D01*
X157214434Y-110923457D02*
X157214434Y-110023457D01*
X157214434Y-110023457D02*
X157557291Y-110023457D01*
X157557291Y-110023457D02*
X157643006Y-110066314D01*
X157643006Y-110066314D02*
X157685863Y-110109171D01*
X157685863Y-110109171D02*
X157728720Y-110194885D01*
X157728720Y-110194885D02*
X157728720Y-110323457D01*
X157728720Y-110323457D02*
X157685863Y-110409171D01*
X157685863Y-110409171D02*
X157643006Y-110452028D01*
X157643006Y-110452028D02*
X157557291Y-110494885D01*
X157557291Y-110494885D02*
X157214434Y-110494885D01*
X155243006Y-113778600D02*
X155371578Y-113821457D01*
X155371578Y-113821457D02*
X155585863Y-113821457D01*
X155585863Y-113821457D02*
X155671578Y-113778600D01*
X155671578Y-113778600D02*
X155714435Y-113735742D01*
X155714435Y-113735742D02*
X155757292Y-113650028D01*
X155757292Y-113650028D02*
X155757292Y-113564314D01*
X155757292Y-113564314D02*
X155714435Y-113478600D01*
X155714435Y-113478600D02*
X155671578Y-113435742D01*
X155671578Y-113435742D02*
X155585863Y-113392885D01*
X155585863Y-113392885D02*
X155414435Y-113350028D01*
X155414435Y-113350028D02*
X155328720Y-113307171D01*
X155328720Y-113307171D02*
X155285863Y-113264314D01*
X155285863Y-113264314D02*
X155243006Y-113178600D01*
X155243006Y-113178600D02*
X155243006Y-113092885D01*
X155243006Y-113092885D02*
X155285863Y-113007171D01*
X155285863Y-113007171D02*
X155328720Y-112964314D01*
X155328720Y-112964314D02*
X155414435Y-112921457D01*
X155414435Y-112921457D02*
X155628720Y-112921457D01*
X155628720Y-112921457D02*
X155757292Y-112964314D01*
X156143006Y-113350028D02*
X156443006Y-113350028D01*
X156571578Y-113821457D02*
X156143006Y-113821457D01*
X156143006Y-113821457D02*
X156143006Y-112921457D01*
X156143006Y-112921457D02*
X156571578Y-112921457D01*
X157385864Y-113821457D02*
X156957292Y-113821457D01*
X156957292Y-113821457D02*
X156957292Y-112921457D01*
X158157292Y-113821457D02*
X157643006Y-113821457D01*
X157900149Y-113821457D02*
X157900149Y-112921457D01*
X157900149Y-112921457D02*
X157814435Y-113050028D01*
X157814435Y-113050028D02*
X157728720Y-113135742D01*
X157728720Y-113135742D02*
X157643006Y-113178600D01*
X155243006Y-116676600D02*
X155371578Y-116719457D01*
X155371578Y-116719457D02*
X155585863Y-116719457D01*
X155585863Y-116719457D02*
X155671578Y-116676600D01*
X155671578Y-116676600D02*
X155714435Y-116633742D01*
X155714435Y-116633742D02*
X155757292Y-116548028D01*
X155757292Y-116548028D02*
X155757292Y-116462314D01*
X155757292Y-116462314D02*
X155714435Y-116376600D01*
X155714435Y-116376600D02*
X155671578Y-116333742D01*
X155671578Y-116333742D02*
X155585863Y-116290885D01*
X155585863Y-116290885D02*
X155414435Y-116248028D01*
X155414435Y-116248028D02*
X155328720Y-116205171D01*
X155328720Y-116205171D02*
X155285863Y-116162314D01*
X155285863Y-116162314D02*
X155243006Y-116076600D01*
X155243006Y-116076600D02*
X155243006Y-115990885D01*
X155243006Y-115990885D02*
X155285863Y-115905171D01*
X155285863Y-115905171D02*
X155328720Y-115862314D01*
X155328720Y-115862314D02*
X155414435Y-115819457D01*
X155414435Y-115819457D02*
X155628720Y-115819457D01*
X155628720Y-115819457D02*
X155757292Y-115862314D01*
X156143006Y-116248028D02*
X156443006Y-116248028D01*
X156571578Y-116719457D02*
X156143006Y-116719457D01*
X156143006Y-116719457D02*
X156143006Y-115819457D01*
X156143006Y-115819457D02*
X156571578Y-115819457D01*
X157385864Y-116719457D02*
X156957292Y-116719457D01*
X156957292Y-116719457D02*
X156957292Y-115819457D01*
X157643006Y-115905171D02*
X157685863Y-115862314D01*
X157685863Y-115862314D02*
X157771578Y-115819457D01*
X157771578Y-115819457D02*
X157985863Y-115819457D01*
X157985863Y-115819457D02*
X158071578Y-115862314D01*
X158071578Y-115862314D02*
X158114435Y-115905171D01*
X158114435Y-115905171D02*
X158157292Y-115990885D01*
X158157292Y-115990885D02*
X158157292Y-116076600D01*
X158157292Y-116076600D02*
X158114435Y-116205171D01*
X158114435Y-116205171D02*
X157600149Y-116719457D01*
X157600149Y-116719457D02*
X158157292Y-116719457D01*
X160465457Y-128560707D02*
X161365457Y-128260707D01*
X161365457Y-128260707D02*
X160465457Y-127960707D01*
X161365457Y-127660707D02*
X160465457Y-127660707D01*
X161365457Y-127232136D02*
X160465457Y-127232136D01*
X160465457Y-127232136D02*
X161365457Y-126717850D01*
X161365457Y-126717850D02*
X160465457Y-126717850D01*
X163406314Y-127960707D02*
X163363457Y-128046422D01*
X163363457Y-128046422D02*
X163363457Y-128174993D01*
X163363457Y-128174993D02*
X163406314Y-128303564D01*
X163406314Y-128303564D02*
X163492028Y-128389279D01*
X163492028Y-128389279D02*
X163577742Y-128432136D01*
X163577742Y-128432136D02*
X163749171Y-128474993D01*
X163749171Y-128474993D02*
X163877742Y-128474993D01*
X163877742Y-128474993D02*
X164049171Y-128432136D01*
X164049171Y-128432136D02*
X164134885Y-128389279D01*
X164134885Y-128389279D02*
X164220600Y-128303564D01*
X164220600Y-128303564D02*
X164263457Y-128174993D01*
X164263457Y-128174993D02*
X164263457Y-128089279D01*
X164263457Y-128089279D02*
X164220600Y-127960707D01*
X164220600Y-127960707D02*
X164177742Y-127917850D01*
X164177742Y-127917850D02*
X163877742Y-127917850D01*
X163877742Y-127917850D02*
X163877742Y-128089279D01*
X164263457Y-127532136D02*
X163363457Y-127532136D01*
X163363457Y-127532136D02*
X164263457Y-127017850D01*
X164263457Y-127017850D02*
X163363457Y-127017850D01*
X164263457Y-126589279D02*
X163363457Y-126589279D01*
X163363457Y-126589279D02*
X163363457Y-126374993D01*
X163363457Y-126374993D02*
X163406314Y-126246422D01*
X163406314Y-126246422D02*
X163492028Y-126160707D01*
X163492028Y-126160707D02*
X163577742Y-126117850D01*
X163577742Y-126117850D02*
X163749171Y-126074993D01*
X163749171Y-126074993D02*
X163877742Y-126074993D01*
X163877742Y-126074993D02*
X164049171Y-126117850D01*
X164049171Y-126117850D02*
X164134885Y-126160707D01*
X164134885Y-126160707D02*
X164220600Y-126246422D01*
X164220600Y-126246422D02*
X164263457Y-126374993D01*
X164263457Y-126374993D02*
X164263457Y-126589279D01*
X166261457Y-128560707D02*
X166261457Y-128046422D01*
X167161457Y-128303564D02*
X166261457Y-128303564D01*
X166261457Y-127832136D02*
X167161457Y-127232136D01*
X166261457Y-127232136D02*
X167161457Y-127832136D01*
X170059457Y-127917850D02*
X169630885Y-128217850D01*
X170059457Y-128432136D02*
X169159457Y-128432136D01*
X169159457Y-128432136D02*
X169159457Y-128089279D01*
X169159457Y-128089279D02*
X169202314Y-128003564D01*
X169202314Y-128003564D02*
X169245171Y-127960707D01*
X169245171Y-127960707D02*
X169330885Y-127917850D01*
X169330885Y-127917850D02*
X169459457Y-127917850D01*
X169459457Y-127917850D02*
X169545171Y-127960707D01*
X169545171Y-127960707D02*
X169588028Y-128003564D01*
X169588028Y-128003564D02*
X169630885Y-128089279D01*
X169630885Y-128089279D02*
X169630885Y-128432136D01*
X169159457Y-127617850D02*
X170059457Y-127017850D01*
X169159457Y-127017850D02*
X170059457Y-127617850D01*
D10*
X179921819Y-117101428D02*
X179921819Y-117577618D01*
X179921819Y-117577618D02*
X180398009Y-117625237D01*
X180398009Y-117625237D02*
X180350390Y-117577618D01*
X180350390Y-117577618D02*
X180302771Y-117482380D01*
X180302771Y-117482380D02*
X180302771Y-117244285D01*
X180302771Y-117244285D02*
X180350390Y-117149047D01*
X180350390Y-117149047D02*
X180398009Y-117101428D01*
X180398009Y-117101428D02*
X180493247Y-117053809D01*
X180493247Y-117053809D02*
X180731342Y-117053809D01*
X180731342Y-117053809D02*
X180826580Y-117101428D01*
X180826580Y-117101428D02*
X180874200Y-117149047D01*
X180874200Y-117149047D02*
X180921819Y-117244285D01*
X180921819Y-117244285D02*
X180921819Y-117482380D01*
X180921819Y-117482380D02*
X180874200Y-117577618D01*
X180874200Y-117577618D02*
X180826580Y-117625237D01*
X180255152Y-116720475D02*
X180921819Y-116482380D01*
X180921819Y-116482380D02*
X180255152Y-116244285D01*
X180921819Y-115101427D02*
X179921819Y-115101427D01*
X179921819Y-115101427D02*
X180636104Y-114768094D01*
X180636104Y-114768094D02*
X179921819Y-114434761D01*
X179921819Y-114434761D02*
X180921819Y-114434761D01*
X180921819Y-113958570D02*
X180255152Y-113958570D01*
X179921819Y-113958570D02*
X179969438Y-114006189D01*
X179969438Y-114006189D02*
X180017057Y-113958570D01*
X180017057Y-113958570D02*
X179969438Y-113910951D01*
X179969438Y-113910951D02*
X179921819Y-113958570D01*
X179921819Y-113958570D02*
X180017057Y-113958570D01*
X180255152Y-113482380D02*
X180921819Y-113482380D01*
X180350390Y-113482380D02*
X180302771Y-113434761D01*
X180302771Y-113434761D02*
X180255152Y-113339523D01*
X180255152Y-113339523D02*
X180255152Y-113196666D01*
X180255152Y-113196666D02*
X180302771Y-113101428D01*
X180302771Y-113101428D02*
X180398009Y-113053809D01*
X180398009Y-113053809D02*
X180921819Y-113053809D01*
X180921819Y-112577618D02*
X180255152Y-112577618D01*
X179921819Y-112577618D02*
X179969438Y-112625237D01*
X179969438Y-112625237D02*
X180017057Y-112577618D01*
X180017057Y-112577618D02*
X179969438Y-112529999D01*
X179969438Y-112529999D02*
X179921819Y-112577618D01*
X179921819Y-112577618D02*
X180017057Y-112577618D01*
X180921819Y-112101428D02*
X179921819Y-112101428D01*
X180302771Y-112101428D02*
X180255152Y-112006190D01*
X180255152Y-112006190D02*
X180255152Y-111815714D01*
X180255152Y-111815714D02*
X180302771Y-111720476D01*
X180302771Y-111720476D02*
X180350390Y-111672857D01*
X180350390Y-111672857D02*
X180445628Y-111625238D01*
X180445628Y-111625238D02*
X180731342Y-111625238D01*
X180731342Y-111625238D02*
X180826580Y-111672857D01*
X180826580Y-111672857D02*
X180874200Y-111720476D01*
X180874200Y-111720476D02*
X180921819Y-111815714D01*
X180921819Y-111815714D02*
X180921819Y-112006190D01*
X180921819Y-112006190D02*
X180874200Y-112101428D01*
X180921819Y-111053809D02*
X180874200Y-111149047D01*
X180874200Y-111149047D02*
X180826580Y-111196666D01*
X180826580Y-111196666D02*
X180731342Y-111244285D01*
X180731342Y-111244285D02*
X180445628Y-111244285D01*
X180445628Y-111244285D02*
X180350390Y-111196666D01*
X180350390Y-111196666D02*
X180302771Y-111149047D01*
X180302771Y-111149047D02*
X180255152Y-111053809D01*
X180255152Y-111053809D02*
X180255152Y-110910952D01*
X180255152Y-110910952D02*
X180302771Y-110815714D01*
X180302771Y-110815714D02*
X180350390Y-110768095D01*
X180350390Y-110768095D02*
X180445628Y-110720476D01*
X180445628Y-110720476D02*
X180731342Y-110720476D01*
X180731342Y-110720476D02*
X180826580Y-110768095D01*
X180826580Y-110768095D02*
X180874200Y-110815714D01*
X180874200Y-110815714D02*
X180921819Y-110910952D01*
X180921819Y-110910952D02*
X180921819Y-111053809D01*
X180921819Y-110149047D02*
X180874200Y-110244285D01*
X180874200Y-110244285D02*
X180826580Y-110291904D01*
X180826580Y-110291904D02*
X180731342Y-110339523D01*
X180731342Y-110339523D02*
X180445628Y-110339523D01*
X180445628Y-110339523D02*
X180350390Y-110291904D01*
X180350390Y-110291904D02*
X180302771Y-110244285D01*
X180302771Y-110244285D02*
X180255152Y-110149047D01*
X180255152Y-110149047D02*
X180255152Y-110006190D01*
X180255152Y-110006190D02*
X180302771Y-109910952D01*
X180302771Y-109910952D02*
X180350390Y-109863333D01*
X180350390Y-109863333D02*
X180445628Y-109815714D01*
X180445628Y-109815714D02*
X180731342Y-109815714D01*
X180731342Y-109815714D02*
X180826580Y-109863333D01*
X180826580Y-109863333D02*
X180874200Y-109910952D01*
X180874200Y-109910952D02*
X180921819Y-110006190D01*
X180921819Y-110006190D02*
X180921819Y-110149047D01*
X180874200Y-109434761D02*
X180921819Y-109339523D01*
X180921819Y-109339523D02*
X180921819Y-109149047D01*
X180921819Y-109149047D02*
X180874200Y-109053809D01*
X180874200Y-109053809D02*
X180778961Y-109006190D01*
X180778961Y-109006190D02*
X180731342Y-109006190D01*
X180731342Y-109006190D02*
X180636104Y-109053809D01*
X180636104Y-109053809D02*
X180588485Y-109149047D01*
X180588485Y-109149047D02*
X180588485Y-109291904D01*
X180588485Y-109291904D02*
X180540866Y-109387142D01*
X180540866Y-109387142D02*
X180445628Y-109434761D01*
X180445628Y-109434761D02*
X180398009Y-109434761D01*
X180398009Y-109434761D02*
X180302771Y-109387142D01*
X180302771Y-109387142D02*
X180255152Y-109291904D01*
X180255152Y-109291904D02*
X180255152Y-109149047D01*
X180255152Y-109149047D02*
X180302771Y-109053809D01*
X180255152Y-108720475D02*
X180255152Y-108339523D01*
X179921819Y-108577618D02*
X180778961Y-108577618D01*
X180778961Y-108577618D02*
X180874200Y-108529999D01*
X180874200Y-108529999D02*
X180921819Y-108434761D01*
X180921819Y-108434761D02*
X180921819Y-108339523D01*
X162159667Y-120595819D02*
X162731095Y-120595819D01*
X162445381Y-121595819D02*
X162445381Y-120595819D01*
X163397762Y-121072009D02*
X163064429Y-121072009D01*
X163064429Y-121595819D02*
X163064429Y-120595819D01*
X163064429Y-120595819D02*
X163540619Y-120595819D01*
X163921572Y-121595819D02*
X163921572Y-120595819D01*
X163921572Y-120595819D02*
X164254905Y-121310104D01*
X164254905Y-121310104D02*
X164588238Y-120595819D01*
X164588238Y-120595819D02*
X164588238Y-121595819D01*
X165064429Y-121595819D02*
X165064429Y-120929152D01*
X165064429Y-120595819D02*
X165016810Y-120643438D01*
X165016810Y-120643438D02*
X165064429Y-120691057D01*
X165064429Y-120691057D02*
X165112048Y-120643438D01*
X165112048Y-120643438D02*
X165064429Y-120595819D01*
X165064429Y-120595819D02*
X165064429Y-120691057D01*
X165540619Y-120929152D02*
X165540619Y-121595819D01*
X165540619Y-121024390D02*
X165588238Y-120976771D01*
X165588238Y-120976771D02*
X165683476Y-120929152D01*
X165683476Y-120929152D02*
X165826333Y-120929152D01*
X165826333Y-120929152D02*
X165921571Y-120976771D01*
X165921571Y-120976771D02*
X165969190Y-121072009D01*
X165969190Y-121072009D02*
X165969190Y-121595819D01*
X166445381Y-121595819D02*
X166445381Y-120929152D01*
X166445381Y-120595819D02*
X166397762Y-120643438D01*
X166397762Y-120643438D02*
X166445381Y-120691057D01*
X166445381Y-120691057D02*
X166493000Y-120643438D01*
X166493000Y-120643438D02*
X166445381Y-120595819D01*
X166445381Y-120595819D02*
X166445381Y-120691057D01*
X166921571Y-121214866D02*
X167683476Y-121214866D01*
X167302523Y-121595819D02*
X167302523Y-120833914D01*
X166824819Y-103750856D02*
X165824819Y-103750856D01*
X166158152Y-103274666D02*
X166824819Y-103274666D01*
X166253390Y-103274666D02*
X166205771Y-103227047D01*
X166205771Y-103227047D02*
X166158152Y-103131809D01*
X166158152Y-103131809D02*
X166158152Y-102988952D01*
X166158152Y-102988952D02*
X166205771Y-102893714D01*
X166205771Y-102893714D02*
X166301009Y-102846095D01*
X166301009Y-102846095D02*
X166824819Y-102846095D01*
X166158152Y-102369904D02*
X167158152Y-102369904D01*
X166205771Y-102369904D02*
X166158152Y-102274666D01*
X166158152Y-102274666D02*
X166158152Y-102084190D01*
X166158152Y-102084190D02*
X166205771Y-101988952D01*
X166205771Y-101988952D02*
X166253390Y-101941333D01*
X166253390Y-101941333D02*
X166348628Y-101893714D01*
X166348628Y-101893714D02*
X166634342Y-101893714D01*
X166634342Y-101893714D02*
X166729580Y-101941333D01*
X166729580Y-101941333D02*
X166777200Y-101988952D01*
X166777200Y-101988952D02*
X166824819Y-102084190D01*
X166824819Y-102084190D02*
X166824819Y-102274666D01*
X166824819Y-102274666D02*
X166777200Y-102369904D01*
X166158152Y-101036571D02*
X166824819Y-101036571D01*
X166158152Y-101465142D02*
X166681961Y-101465142D01*
X166681961Y-101465142D02*
X166777200Y-101417523D01*
X166777200Y-101417523D02*
X166824819Y-101322285D01*
X166824819Y-101322285D02*
X166824819Y-101179428D01*
X166824819Y-101179428D02*
X166777200Y-101084190D01*
X166777200Y-101084190D02*
X166729580Y-101036571D01*
X166158152Y-100703237D02*
X166158152Y-100322285D01*
X165824819Y-100560380D02*
X166681961Y-100560380D01*
X166681961Y-100560380D02*
X166777200Y-100512761D01*
X166777200Y-100512761D02*
X166824819Y-100417523D01*
X166824819Y-100417523D02*
X166824819Y-100322285D01*
D12*
%TO.C,J2*%
X147380000Y-100270000D02*
X147380000Y-101600000D01*
X146050000Y-100270000D02*
X147380000Y-100270000D01*
X144780000Y-100270000D02*
X116780000Y-100270000D01*
X144780000Y-100270000D02*
X144780000Y-102930000D01*
X116780000Y-100270000D02*
X116780000Y-102930000D01*
X144780000Y-102930000D02*
X116780000Y-102930000D01*
%TO.C,J1*%
X106620000Y-123250000D02*
X106620000Y-121920000D01*
X107950000Y-123250000D02*
X106620000Y-123250000D01*
X109220000Y-123250000D02*
X147380000Y-123250000D01*
X109220000Y-123250000D02*
X109220000Y-120590000D01*
X147380000Y-123250000D02*
X147380000Y-120590000D01*
X109220000Y-120590000D02*
X147380000Y-120590000D01*
%TO.C,J4*%
X167580000Y-107890000D02*
X168910000Y-107890000D01*
X167580000Y-109220000D02*
X167580000Y-107890000D01*
X167580000Y-110490000D02*
X167580000Y-118170000D01*
X167580000Y-110490000D02*
X170240000Y-110490000D01*
X167580000Y-118170000D02*
X170240000Y-118170000D01*
X170240000Y-110490000D02*
X170240000Y-118170000D01*
%TO.C,J3*%
X171593000Y-125686000D02*
X171593000Y-124436000D01*
X171303000Y-125396000D02*
X171303000Y-119426000D01*
X171303000Y-119426000D02*
X158683000Y-119426000D01*
X171293000Y-125386000D02*
X171293000Y-124636000D01*
X171293000Y-124636000D02*
X169493000Y-124636000D01*
X171293000Y-123136000D02*
X170543000Y-123136000D01*
X170543000Y-123136000D02*
X170543000Y-120186000D01*
X170543000Y-120186000D02*
X164993000Y-120186000D01*
X170343000Y-125686000D02*
X171593000Y-125686000D01*
X169493000Y-125386000D02*
X171293000Y-125386000D01*
X169493000Y-124636000D02*
X169493000Y-125386000D01*
X167993000Y-125386000D02*
X167993000Y-124636000D01*
X167993000Y-124636000D02*
X161993000Y-124636000D01*
X161993000Y-125386000D02*
X167993000Y-125386000D01*
X161993000Y-124636000D02*
X161993000Y-125386000D01*
X160493000Y-125386000D02*
X160493000Y-124636000D01*
X160493000Y-124636000D02*
X158693000Y-124636000D01*
X159443000Y-123136000D02*
X159443000Y-120186000D01*
X159443000Y-120186000D02*
X164993000Y-120186000D01*
X158693000Y-125386000D02*
X160493000Y-125386000D01*
X158693000Y-124636000D02*
X158693000Y-125386000D01*
X158693000Y-123136000D02*
X159443000Y-123136000D01*
X158683000Y-125396000D02*
X171303000Y-125396000D01*
X158683000Y-119426000D02*
X158683000Y-125396000D01*
%TO.C,J6*%
X165310000Y-100140000D02*
X164060000Y-100140000D01*
X165020000Y-100430000D02*
X159050000Y-100430000D01*
X159050000Y-100430000D02*
X159050000Y-118050000D01*
X165010000Y-100440000D02*
X164260000Y-100440000D01*
X164260000Y-100440000D02*
X164260000Y-102240000D01*
X162760000Y-100440000D02*
X162760000Y-101190000D01*
X162760000Y-101190000D02*
X161420000Y-101190000D01*
X165310000Y-101390000D02*
X165310000Y-100140000D01*
X165010000Y-102240000D02*
X165010000Y-100440000D01*
X164260000Y-102240000D02*
X165010000Y-102240000D01*
X165010000Y-103740000D02*
X164260000Y-103740000D01*
X164260000Y-103740000D02*
X164260000Y-114740000D01*
X159810000Y-109240000D02*
X159810000Y-102250000D01*
X165010000Y-114740000D02*
X165010000Y-103740000D01*
X164260000Y-114740000D02*
X165010000Y-114740000D01*
X165010000Y-116240000D02*
X164260000Y-116240000D01*
X164260000Y-116240000D02*
X164260000Y-118040000D01*
X162760000Y-117290000D02*
X159810000Y-117290000D01*
X159810000Y-117290000D02*
X159810000Y-109240000D01*
X165010000Y-118040000D02*
X165010000Y-116240000D01*
X164260000Y-118040000D02*
X165010000Y-118040000D01*
X162760000Y-118040000D02*
X162760000Y-117290000D01*
X165020000Y-118050000D02*
X165020000Y-100430000D01*
X159050000Y-118050000D02*
X165020000Y-118050000D01*
%TD*%
M02*
