%TF.GenerationSoftware,KiCad,Pcbnew,7.0.7*%
%TF.CreationDate,2024-05-03T13:44:01+01:00*%
%TF.ProjectId,MRF67-pro,4d524636-372d-4707-926f-2e6b69636164,rev?*%
%TF.SameCoordinates,Original*%
%TF.FileFunction,Copper,L1,Top*%
%TF.FilePolarity,Positive*%
%FSLAX46Y46*%
G04 Gerber Fmt 4.6, Leading zero omitted, Abs format (unit mm)*
G04 Created by KiCad (PCBNEW 7.0.7) date 2024-05-03 13:44:01*
%MOMM*%
%LPD*%
G01*
G04 APERTURE LIST*
G04 Aperture macros list*
%AMRoundRect*
0 Rectangle with rounded corners*
0 $1 Rounding radius*
0 $2 $3 $4 $5 $6 $7 $8 $9 X,Y pos of 4 corners*
0 Add a 4 corners polygon primitive as box body*
4,1,4,$2,$3,$4,$5,$6,$7,$8,$9,$2,$3,0*
0 Add four circle primitives for the rounded corners*
1,1,$1+$1,$2,$3*
1,1,$1+$1,$4,$5*
1,1,$1+$1,$6,$7*
1,1,$1+$1,$8,$9*
0 Add four rect primitives between the rounded corners*
20,1,$1+$1,$2,$3,$4,$5,0*
20,1,$1+$1,$4,$5,$6,$7,0*
20,1,$1+$1,$6,$7,$8,$9,0*
20,1,$1+$1,$8,$9,$2,$3,0*%
G04 Aperture macros list end*
%TA.AperFunction,ComponentPad*%
%ADD10R,1.700000X1.700000*%
%TD*%
%TA.AperFunction,ComponentPad*%
%ADD11O,1.700000X1.700000*%
%TD*%
%TA.AperFunction,ComponentPad*%
%ADD12RoundRect,0.250000X0.600000X0.725000X-0.600000X0.725000X-0.600000X-0.725000X0.600000X-0.725000X0*%
%TD*%
%TA.AperFunction,ComponentPad*%
%ADD13O,1.700000X1.950000*%
%TD*%
%TA.AperFunction,ComponentPad*%
%ADD14RoundRect,0.250000X-0.725000X0.600000X-0.725000X-0.600000X0.725000X-0.600000X0.725000X0.600000X0*%
%TD*%
%TA.AperFunction,ComponentPad*%
%ADD15O,1.950000X1.700000*%
%TD*%
%TA.AperFunction,ViaPad*%
%ADD16C,0.800000*%
%TD*%
%TA.AperFunction,Conductor*%
%ADD17C,0.250000*%
%TD*%
G04 APERTURE END LIST*
D10*
%TO.P,J2,1,Pin_1*%
%TO.N,unconnected-(J2-Pin_1-Pad1)*%
X146050000Y-101600000D03*
D11*
%TO.P,J2,2,Pin_2*%
%TO.N,unconnected-(J2-Pin_2-Pad2)*%
X143510000Y-101600000D03*
%TO.P,J2,3,Pin_3*%
%TO.N,unconnected-(J2-Pin_3-Pad3)*%
X140970000Y-101600000D03*
%TO.P,J2,4,Pin_4*%
%TO.N,unconnected-(J2-Pin_4-Pad4)*%
X138430000Y-101600000D03*
%TO.P,J2,5,Pin_5*%
%TO.N,Net-(J2-Pin_5)*%
X135890000Y-101600000D03*
%TO.P,J2,6,Pin_6*%
%TO.N,Net-(J2-Pin_6)*%
X133350000Y-101600000D03*
%TO.P,J2,7,Pin_7*%
%TO.N,unconnected-(J2-Pin_7-Pad7)*%
X130810000Y-101600000D03*
%TO.P,J2,8,Pin_8*%
%TO.N,unconnected-(J2-Pin_8-Pad8)*%
X128270000Y-101600000D03*
%TO.P,J2,9,Pin_9*%
%TO.N,unconnected-(J2-Pin_9-Pad9)*%
X125730000Y-101600000D03*
%TO.P,J2,10,Pin_10*%
%TO.N,unconnected-(J2-Pin_10-Pad10)*%
X123190000Y-101600000D03*
%TO.P,J2,11,Pin_11*%
%TO.N,Net-(J2-Pin_11)*%
X120650000Y-101600000D03*
%TO.P,J2,12,Pin_12*%
%TO.N,unconnected-(J2-Pin_12-Pad12)*%
X118110000Y-101600000D03*
%TD*%
D10*
%TO.P,J1,1,Pin_1*%
%TO.N,unconnected-(J1-Pin_1-Pad1)*%
X107950000Y-121920000D03*
D11*
%TO.P,J1,2,Pin_2*%
%TO.N,Net-(J1-Pin_2)*%
X110490000Y-121920000D03*
%TO.P,J1,3,Pin_3*%
%TO.N,unconnected-(J1-Pin_3-Pad3)*%
X113030000Y-121920000D03*
%TO.P,J1,4,Pin_4*%
%TO.N,Net-(J1-Pin_4)*%
X115570000Y-121920000D03*
%TO.P,J1,5,Pin_5*%
%TO.N,unconnected-(J1-Pin_5-Pad5)*%
X118110000Y-121920000D03*
%TO.P,J1,6,Pin_6*%
%TO.N,unconnected-(J1-Pin_6-Pad6)*%
X120650000Y-121920000D03*
%TO.P,J1,7,Pin_7*%
%TO.N,unconnected-(J1-Pin_7-Pad7)*%
X123190000Y-121920000D03*
%TO.P,J1,8,Pin_8*%
%TO.N,unconnected-(J1-Pin_8-Pad8)*%
X125730000Y-121920000D03*
%TO.P,J1,9,Pin_9*%
%TO.N,unconnected-(J1-Pin_9-Pad9)*%
X128270000Y-121920000D03*
%TO.P,J1,10,Pin_10*%
%TO.N,unconnected-(J1-Pin_10-Pad10)*%
X130810000Y-121920000D03*
%TO.P,J1,11,Pin_11*%
%TO.N,unconnected-(J1-Pin_11-Pad11)*%
X133350000Y-121920000D03*
%TO.P,J1,12,Pin_12*%
%TO.N,unconnected-(J1-Pin_12-Pad12)*%
X135890000Y-121920000D03*
%TO.P,J1,13,Pin_13*%
%TO.N,unconnected-(J1-Pin_13-Pad13)*%
X138430000Y-121920000D03*
%TO.P,J1,14,Pin_14*%
%TO.N,Net-(J1-Pin_14)*%
X140970000Y-121920000D03*
%TO.P,J1,15,Pin_15*%
%TO.N,Net-(J1-Pin_15)*%
X143510000Y-121920000D03*
%TO.P,J1,16,Pin_16*%
%TO.N,unconnected-(J1-Pin_16-Pad16)*%
X146050000Y-121920000D03*
%TD*%
D10*
%TO.P,J4,1,Pin_1*%
%TO.N,Net-(J1-Pin_2)*%
X168910000Y-109220000D03*
D11*
%TO.P,J4,2,Pin_2*%
%TO.N,Net-(J1-Pin_4)*%
X168910000Y-111760000D03*
%TO.P,J4,3,Pin_3*%
%TO.N,Net-(J3-Pin_4)*%
X168910000Y-114300000D03*
%TO.P,J4,4,Pin_4*%
%TO.N,unconnected-(J4-Pin_4-Pad4)*%
X168910000Y-116840000D03*
%TD*%
D12*
%TO.P,J3,1,Pin_1*%
%TO.N,Net-(J1-Pin_15)*%
X168743000Y-122936000D03*
D13*
%TO.P,J3,2,Pin_2*%
%TO.N,Net-(J1-Pin_14)*%
X166243000Y-122936000D03*
%TO.P,J3,3,Pin_3*%
%TO.N,Net-(J1-Pin_4)*%
X163743000Y-122936000D03*
%TO.P,J3,4,Pin_4*%
%TO.N,Net-(J3-Pin_4)*%
X161243000Y-122936000D03*
%TD*%
D14*
%TO.P,J6,1,Pin_1*%
%TO.N,Net-(J1-Pin_4)*%
X162560000Y-102990000D03*
D15*
%TO.P,J6,2,Pin_2*%
X162560000Y-105490000D03*
%TO.P,J6,3,Pin_3*%
X162560000Y-107990000D03*
%TO.P,J6,4,Pin_4*%
%TO.N,Net-(J2-Pin_11)*%
X162560000Y-110490000D03*
%TO.P,J6,5,Pin_5*%
%TO.N,Net-(J2-Pin_6)*%
X162560000Y-112990000D03*
%TO.P,J6,6,Pin_6*%
%TO.N,Net-(J2-Pin_5)*%
X162560000Y-115490000D03*
%TD*%
D16*
%TO.N,Net-(J2-Pin_6)*%
X136652000Y-112014000D03*
%TD*%
D17*
%TO.N,Net-(J2-Pin_6)*%
X137374000Y-112990000D02*
X136652000Y-112014000D01*
X162560000Y-112990000D02*
X137374000Y-112990000D01*
%TO.N,Net-(J1-Pin_4)*%
X163743000Y-121880000D02*
X165862000Y-119761000D01*
X162560000Y-105490000D02*
X162560000Y-102990000D01*
X165862000Y-119761000D02*
X171577000Y-119761000D01*
X171577000Y-119761000D02*
X171577000Y-114427000D01*
X162560000Y-107990000D02*
X162560000Y-105490000D01*
X171577000Y-114427000D02*
X168910000Y-111760000D01*
X163743000Y-122936000D02*
X163743000Y-121880000D01*
%TO.N,Net-(J2-Pin_11)*%
X129540000Y-110490000D02*
X120650000Y-101600000D01*
X162560000Y-110490000D02*
X129540000Y-110490000D01*
%TO.N,Net-(J1-Pin_14)*%
X153573000Y-124236000D02*
X147574000Y-118237000D01*
X147574000Y-118237000D02*
X144653000Y-118237000D01*
X144653000Y-118237000D02*
X140970000Y-121920000D01*
X164943000Y-124236000D02*
X153573000Y-124236000D01*
X166243000Y-122936000D02*
X164943000Y-124236000D01*
%TO.N,Net-(J1-Pin_15)*%
X147320000Y-125730000D02*
X143510000Y-121920000D01*
X168529000Y-125730000D02*
X147320000Y-125730000D01*
X168743000Y-122936000D02*
X168743000Y-125516000D01*
X168743000Y-125516000D02*
X168529000Y-125730000D01*
%TO.N,Net-(J2-Pin_5)*%
X166370000Y-101346000D02*
X165439000Y-100415000D01*
X135890000Y-101600000D02*
X135890000Y-104140000D01*
X166370000Y-111680000D02*
X166370000Y-101346000D01*
X150622000Y-104394000D02*
X136144000Y-104394000D01*
X135890000Y-104140000D02*
X136144000Y-104394000D01*
X162560000Y-115490000D02*
X166370000Y-111680000D01*
X154601000Y-100415000D02*
X150622000Y-104394000D01*
X165439000Y-100415000D02*
X154601000Y-100415000D01*
%TO.N,Net-(J3-Pin_4)*%
X161243000Y-121967000D02*
X161243000Y-122936000D01*
X168910000Y-114300000D02*
X161243000Y-121967000D01*
%TD*%
M02*
